<?xml version="1.0" standalone="no"?>
<!DOCTYPE svg PUBLIC "-//W3C//DTD SVG 20010904//EN"
 "http://www.w3.org/TR/2001/REC-SVG-20010904/DTD/svg10.dtd">
<svg version="1.0" xmlns="http://www.w3.org/2000/svg"
 width="1024.000000pt" height="1024.000000pt" viewBox="0 0 1024.000000 1024.000000"
 preserveAspectRatio="xMidYMid meet">

<g transform="translate(0.000000,1024.000000) scale(0.100000,-0.100000)"
fill="#000000" stroke="none">
<path d="M4890 9120 c-342 -48 -648 -181 -897 -392 -105 -89 -153 -142 -153
-171 0 -34 149 -177 184 -177 18 0 50 22 108 76 191 174 435 297 698 351 65
13 133 18 285 17 180 0 211 -2 310 -26 276 -65 477 -169 689 -357 91 -81 101
-80 199 12 102 95 102 106 5 199 -232 223 -543 382 -874 449 -123 24 -437 35
-554 19z"/>
<path d="M4911 8554 c-99 -17 -236 -61 -323 -105 -147 -74 -348 -238 -348
-285 0 -10 35 -53 78 -96 99 -99 116 -101 198 -27 190 172 457 260 695 230
187 -24 350 -96 496 -220 98 -83 108 -82 206 15 98 97 99 108 15 187 -264 246
-654 362 -1017 301z"/>
<path d="M4970 7995 c-93 -25 -195 -82 -260 -143 -33 -32 -60 -66 -60 -77 0
-10 33 -51 73 -92 84 -83 110 -91 168 -47 19 14 61 39 94 55 111 54 258 34
363 -50 61 -48 84 -42 170 38 44 42 72 77 72 90 0 51 -146 164 -270 208 -93
33 -261 42 -350 18z"/>
<path d="M4425 7514 c-833 -147 -1566 -300 -1637 -341 -18 -10 -41 -34 -53
-53 -20 -34 -20 -48 -20 -875 0 -824 1 -843 23 -983 104 -655 424 -1203 967
-1657 211 -176 418 -323 650 -463 155 -92 580 -320 675 -361 91 -39 119 -31
405 112 700 352 1211 738 1550 1172 320 410 502 890 535 1413 14 216 13 1545
-1 1595 -16 60 -64 105 -129 122 -260 69 -1112 239 -1570 314 l-115 18 -91
-89 -92 -90 -4 -83 c-6 -110 -44 -191 -128 -268 -161 -150 -402 -139 -555 24
-67 71 -98 145 -103 245 l-4 81 -98 91 c-54 51 -104 92 -112 91 -7 -1 -49 -8
-93 -15z m-74 -476 c20 -37 40 -222 38 -357 l-1 -134 108 -27 c202 -52 411
-141 476 -204 21 -21 48 -67 72 -124 22 -53 48 -100 63 -111 13 -11 124 -52
246 -92 278 -89 274 -88 308 -117 21 -17 29 -33 29 -56 0 -68 -167 -362 -250
-440 -88 -82 -178 -107 -340 -95 -304 24 -329 24 -354 0 -32 -30 -61 -99 -80
-193 -30 -147 -18 -240 63 -491 73 -224 90 -296 98 -412 8 -126 -14 -237 -93
-473 -83 -251 -102 -324 -116 -444 l-11 -97 -31 16 c-146 75 -554 344 -706
466 -359 287 -592 568 -782 944 l-51 102 74 86 c113 132 196 243 233 315 18
36 55 139 81 230 69 241 108 348 185 507 104 216 206 364 285 413 31 19 34 25
40 88 17 177 51 255 215 493 59 85 118 174 131 196 25 44 50 48 70 11z m309
-155 c24 -78 35 -184 26 -244 -11 -71 -12 -71 -102 -53 -43 9 -82 19 -85 22
-9 9 51 246 81 326 l23 60 18 -23 c10 -13 28 -52 39 -88z m1674 -876 c13 -17
21 -48 24 -86 4 -49 0 -70 -22 -116 -19 -43 -30 -56 -42 -51 -8 3 -31 6 -50 6
l-34 0 0 84 c0 86 10 159 29 210 l11 28 32 -24 c18 -14 41 -37 52 -51z m264
26 c31 -28 139 -218 173 -307 20 -52 34 -112 41 -175 9 -85 16 -108 64 -206
64 -130 81 -200 94 -378 17 -221 31 -275 104 -387 l35 -55 -46 -85 c-182 -337
-504 -666 -972 -994 -142 -99 -185 -125 -192 -115 -48 75 -84 265 -75 404 11
187 56 317 208 598 38 69 42 84 42 145 0 117 -56 185 -204 247 -192 81 -257
168 -267 361 l-6 91 86 52 c81 49 89 56 123 122 96 181 248 277 498 312 l88
12 58 160 c31 88 63 172 70 188 15 32 48 36 78 10z"/>
<path d="M4845 6144 c-16 -8 -41 -23 -55 -34 l-25 -20 32 -30 c30 -27 130 -66
141 -55 3 3 -2 39 -12 80 -19 82 -26 87 -81 59z"/>
<path d="M5981 5362 c-11 -21 -41 -134 -41 -156 0 -12 10 -16 35 -16 50 0 96
22 128 60 l28 33 -28 29 c-24 26 -91 68 -107 68 -3 0 -10 -8 -15 -18z"/>
<path d="M5028 7460 c-71 -38 -115 -126 -104 -205 21 -138 188 -212 309 -136
125 80 119 269 -12 338 -56 29 -140 31 -193 3z"/>
<path d="M4335 2458 c-159 -20 -293 -117 -353 -258 -78 -181 -69 -465 19 -631
142 -266 563 -310 796 -82 l53 51 0 194 c0 138 -3 197 -12 206 -17 17 -389 17
-406 0 -7 -7 -12 -42 -12 -88 0 -46 5 -81 12 -88 8 -8 45 -12 100 -12 l88 0 0
-51 c0 -42 -5 -55 -29 -79 -37 -38 -128 -64 -193 -57 -141 17 -218 133 -218
329 0 220 86 348 234 348 81 0 131 -31 168 -105 11 -22 22 -41 23 -43 6 -7
220 40 232 50 16 13 8 47 -23 109 -43 87 -109 146 -204 184 -54 21 -193 33
-275 23z"/>
<path d="M1362 2438 c-17 -17 -17 -1049 0 -1066 16 -16 210 -16 226 0 8 8 12
60 12 170 l0 158 120 0 c141 0 219 21 296 79 170 128 180 430 19 574 -33 30
-136 76 -194 87 -78 15 -464 13 -479 -2z m469 -241 c66 -44 86 -124 49 -205
-27 -60 -77 -81 -192 -82 l-88 0 0 155 0 155 99 0 c85 0 102 -3 132 -23z"/>
<path d="M2292 2438 c-17 -17 -17 -1049 0 -1066 9 -9 97 -12 335 -12 308 0
323 1 333 19 14 28 13 174 -2 189 -9 9 -72 12 -220 12 l-208 0 0 110 0 110
188 2 187 3 0 100 0 100 -187 3 -188 2 0 105 0 105 198 0 c141 0 201 3 210 12
8 8 12 47 12 109 0 79 -3 98 -16 103 -9 3 -154 6 -323 6 -225 0 -310 -3 -319
-12z"/>
<path d="M3080 2431 c-14 -28 -13 -184 2 -199 8 -8 54 -12 140 -12 l128 0 0
-411 c0 -264 4 -417 10 -430 10 -17 22 -19 113 -19 67 0 107 4 115 12 9 9 12
118 12 430 l0 418 128 0 c86 0 132 4 140 12 8 8 12 46 12 103 0 57 -4 95 -12
103 -9 9 -110 12 -395 12 -368 0 -383 -1 -393 -19z"/>
<path d="M5012 2438 c-16 -16 -17 -724 -1 -800 31 -147 143 -255 297 -287 75
-16 208 -14 277 4 75 20 158 69 196 117 16 20 42 63 57 95 l27 58 3 393 c3
362 2 395 -14 413 -15 16 -31 19 -114 19 -61 0 -100 -4 -108 -12 -9 -9 -12
-102 -12 -358 0 -190 -5 -363 -10 -384 -19 -83 -74 -129 -163 -134 -81 -4
-141 25 -171 83 -20 38 -21 59 -24 410 -2 244 -7 373 -14 382 -14 17 -209 18
-226 1z"/>
<path d="M6298 2439 c-27 -15 -361 -1036 -347 -1060 8 -17 23 -19 114 -19 79
0 107 4 119 15 8 8 27 54 43 100 l27 85 190 -2 189 -3 28 -84 c16 -46 34 -90
40 -97 19 -23 218 -15 233 8 14 23 -315 1024 -346 1051 -17 14 -40 17 -147 17
-69 0 -134 -5 -143 -11z m166 -341 c9 -24 36 -106 60 -183 l44 -140 -120 -3
c-67 -1 -123 -1 -125 2 -7 7 109 366 118 366 4 0 15 -19 23 -42z"/>
<path d="M7082 2438 c-17 -17 -17 -1049 0 -1066 16 -16 210 -16 226 0 8 8 12
63 12 180 l0 168 63 0 63 0 74 -127 c40 -71 89 -152 107 -180 l33 -53 105 0
c91 0 106 2 114 18 12 22 10 24 -103 217 -42 72 -75 135 -74 142 2 6 25 26 53
45 105 70 150 170 143 316 -3 69 -10 98 -32 142 -53 107 -149 176 -276 200
-78 15 -493 13 -508 -2z m487 -236 c74 -37 99 -118 62 -195 -31 -64 -69 -80
-203 -85 l-108 -4 0 151 0 151 108 0 c82 0 115 -4 141 -18z"/>
<path d="M8062 2438 c-17 -17 -17 -1049 0 -1066 9 -9 71 -12 215 -12 302 0
400 26 508 134 90 90 132 203 141 381 16 300 -122 507 -373 560 -88 19 -473
21 -491 3z m474 -237 c95 -43 139 -140 139 -306 -1 -128 -20 -187 -83 -248
-50 -49 -107 -67 -208 -67 l-84 0 0 320 0 320 98 0 c73 0 107 -5 138 -19z"/>
</g>
</svg>
